<svg width="16" height="15" viewBox="0 0 16 15" fill="none" xmlns="http://www.w3.org/2000/svg">
    <path d="M8 8.5V6.25M8 6.25V4M8 6.25H5.75M8 6.25H10.25M4.34268 12.0259L3.19971 12.9402C2.57558 13.4396 2.26336 13.6893 2.00073 13.6896C1.77233 13.6898 1.55634 13.586 1.41385 13.4075C1.25 13.2022 1.25 12.8027 1.25 12.0034V3.40015C1.25 2.56007 1.25 2.13972 1.41349 1.81885C1.5573 1.5366 1.7866 1.3073 2.06885 1.16349C2.38972 1 2.81007 1 3.65015 1H12.3501C13.1902 1 13.6101 1 13.9309 1.16349C14.2132 1.3073 14.4429 1.5366 14.5866 1.81885C14.75 2.1394 14.75 2.55924 14.75 3.39768V9.1027C14.75 9.94112 14.75 10.3604 14.5866 10.6809C14.4429 10.9631 14.2132 11.1929 13.931 11.3366C13.6105 11.5 13.1911 11.5 12.3527 11.5H5.84192C5.52989 11.5 5.37372 11.5 5.22449 11.5306C5.09209 11.5578 4.96412 11.6026 4.84376 11.6641C4.70862 11.7331 4.58723 11.8302 4.34542 12.0236L4.34268 12.0259Z" stroke="white" stroke-width="1.5" stroke-linecap="round" stroke-linejoin="round"/>
</svg>
