<svg width="40" height="40" viewBox="0 0 40 40" fill="none" xmlns="http://www.w3.org/2000/svg">
    <rect width="40" height="40" rx="20" fill="#28A08C"/>
    <path d="M31.5755 17.5804C31.8036 16.9036 31.92 16.1951 31.9201 15.4818C31.9201 14.3017 31.6015 13.1428 30.9971 12.1243C29.7827 10.0386 27.5299 8.75083 25.0917 8.75083C24.6115 8.75083 24.1324 8.80088 23.6628 8.90015C23.0311 8.19788 22.2556 7.6357 21.3876 7.25071C20.5196 6.86572 19.5787 6.66665 18.627 6.66663H18.5843L18.5683 6.66672C15.6152 6.66672 12.9964 8.54684 12.0886 11.3186C11.149 11.5085 10.2612 11.8942 9.48491 12.4501C8.70856 13.0059 8.06152 13.7189 7.58708 14.5415C6.98455 15.566 6.66703 16.7295 6.66666 17.914C6.66689 19.5788 7.29319 21.1842 8.4243 22.4196C8.19598 23.0962 8.07952 23.8049 8.07943 24.5181C8.07954 25.6982 8.39814 26.8572 9.0025 27.8756C9.72119 29.1102 10.8187 30.0878 12.1368 30.6673C13.4549 31.2466 14.9255 31.3981 16.3365 31.0997C16.9683 31.802 17.7438 32.3641 18.6119 32.7492C19.4799 33.1341 20.4208 33.3333 21.3725 33.3333H21.4153L21.4327 33.3332C24.3873 33.3332 27.0052 31.453 27.9131 28.6788C28.8527 28.4888 29.7404 28.103 30.5168 27.5472C31.2931 26.9913 31.9403 26.2782 32.4147 25.4558C33.0165 24.4321 33.3335 23.2696 33.3333 22.0861C33.3331 20.4214 32.7065 18.8156 31.5755 17.5804ZM21.4171 31.59H21.41C20.2277 31.5896 19.083 31.1804 18.1749 30.4334C18.2288 30.4048 18.2821 30.3749 18.3347 30.344L23.716 27.277C23.8503 27.2016 23.9619 27.0925 24.0396 26.9606C24.1173 26.8289 24.1583 26.6792 24.1583 26.5266V19.0361L26.4328 20.332C26.4448 20.3378 26.4551 20.3465 26.4628 20.3572C26.4705 20.368 26.4753 20.3804 26.4771 20.3934V26.5925C26.474 29.3486 24.2105 31.5844 21.4171 31.59ZM10.5352 27.0042C10.0907 26.2458 9.85651 25.3853 9.85622 24.5093C9.85622 24.2236 9.88151 23.9372 9.93076 23.6556C9.97076 23.6793 10.0406 23.7213 10.0907 23.7497L15.4719 26.8166C15.6061 26.894 15.7586 26.9346 15.914 26.9346C16.0693 26.9346 16.2219 26.8938 16.356 26.8165L22.926 23.0734V25.6653V25.6697C22.926 25.6822 22.9231 25.6945 22.9175 25.7057C22.9117 25.7168 22.9036 25.7265 22.8935 25.7341L17.4535 28.8332C16.6838 29.2702 15.8113 29.5004 14.9232 29.5006C14.0342 29.5005 13.1608 29.2697 12.3907 28.8316C11.6205 28.3933 10.9806 27.7633 10.5352 27.0042ZM9.1195 15.4129C9.71052 14.3999 10.6437 13.6244 11.7559 13.2219C11.7559 13.2676 11.7532 13.3486 11.7532 13.4048V19.5388L11.7531 19.5438C11.7531 19.6961 11.794 19.8457 11.8716 19.9774C11.9492 20.109 12.0607 20.2181 12.1948 20.2936L18.7647 24.036L16.4903 25.3318C16.4791 25.3392 16.4662 25.3436 16.4528 25.3448C16.4394 25.346 16.4259 25.344 16.4136 25.3388L10.9731 22.237C10.204 21.7974 9.56551 21.1661 9.12162 20.4064C8.67772 19.6465 8.44402 18.785 8.44392 17.908C8.44426 17.0324 8.67702 16.1719 9.1195 15.4129ZM27.8069 19.7037L21.2369 15.9607L23.5115 14.6654C23.5227 14.6581 23.5356 14.6536 23.5489 14.6524C23.5624 14.6512 23.5759 14.6533 23.5883 14.6585L29.0285 17.7575C29.7983 18.1965 30.4375 18.8275 30.8819 19.5872C31.3264 20.3469 31.5604 21.2086 31.5607 22.0858C31.5607 24.1794 30.2365 26.0529 28.2456 26.776V20.4586C28.2459 20.4562 28.2459 20.4538 28.2459 20.4516C28.2459 20.2998 28.2053 20.1508 28.1281 20.0194C28.0511 19.8881 27.9403 19.7792 27.8069 19.7037ZM30.0708 16.3418C30.0179 16.3098 29.9645 16.2785 29.9109 16.2478L24.5297 13.1807C24.3955 13.1036 24.2431 13.0629 24.0877 13.0629C23.9324 13.0629 23.78 13.1036 23.6457 13.1807L17.0757 16.9237V14.332L17.0757 14.3275C17.0757 14.3022 17.0878 14.2784 17.1083 14.2632L22.5483 11.1667C23.3177 10.729 24.1903 10.4986 25.0784 10.4986C27.8755 10.4986 30.1437 12.7367 30.1437 15.4965C30.1436 15.7797 30.1192 16.0627 30.0708 16.3418ZM15.8391 20.9612L13.5642 19.6653C13.5522 19.6595 13.5419 19.6508 13.5342 19.64C13.5265 19.6293 13.5216 19.6168 13.5199 19.6038V13.4046C13.5211 10.6463 15.7894 8.41008 18.5852 8.41008C19.7693 8.41032 20.916 8.81961 21.8263 9.56692C21.7853 9.58899 21.7139 9.62791 21.6664 9.65629L16.2852 12.7232C16.1509 12.7986 16.0392 12.9077 15.9616 13.0395C15.8839 13.1712 15.8429 13.3209 15.8429 13.4733V13.4783L15.8391 20.9612ZM17.0747 18.3327L20.0008 16.6651L22.9269 18.3316V21.6657L20.0008 23.3322L17.0747 21.6657V18.3327Z" fill="white"/>
</svg>
