<svg width="16" height="16" viewBox="0 0 16 16" fill="none" xmlns="http://www.w3.org/2000/svg">
    <path d="M15.2701 13.9944L11.8697 10.5939C12.6883 9.50407 13.1303 8.17749 13.1288 6.8144C13.1288 3.33266 10.2961 0.5 6.8144 0.5C3.33266 0.5 0.5 3.33266 0.5 6.8144C0.5 10.2961 3.33266 13.1288 6.8144 13.1288C8.17749 13.1303 9.50407 12.6883 10.5939 11.8697L13.9944 15.2701C14.1665 15.424 14.391 15.5061 14.6218 15.4996C14.8526 15.4932 15.0721 15.3986 15.2354 15.2354C15.3986 15.0721 15.4932 14.8526 15.4996 14.6218C15.5061 14.391 15.424 14.1665 15.2701 13.9944ZM2.30411 6.8144C2.30411 5.92235 2.56864 5.05033 3.06423 4.30862C3.55983 3.56691 4.26424 2.98881 5.08839 2.64744C5.91253 2.30607 6.8194 2.21675 7.69431 2.39078C8.56922 2.56481 9.37288 2.99437 10.0037 3.62515C10.6344 4.25592 11.064 5.05958 11.238 5.93449C11.4121 6.8094 11.3227 7.71626 10.9814 8.54041C10.64 9.36456 10.0619 10.069 9.32018 10.5646C8.57847 11.0602 7.70645 11.3247 6.8144 11.3247C5.61864 11.3232 4.47226 10.8476 3.62673 10.0021C2.7812 9.15654 2.30555 8.01016 2.30411 6.8144Z" fill="#616D8D"/>
</svg>
